<svg width="151" height="24" viewBox="0 0 151 24" fill="none" xmlns="http://www.w3.org/2000/svg">
<g clip-path="url(#clip0_1_6)">
<path fill-rule="evenodd" clip-rule="evenodd" d="M1.33333 5.33333H5.7778V9.7778H10.2222V14.2222H14.6667V18.6667H1.33333V5.33333Z" fill="#0D141C"/>
</g>
<path d="M33.458 18.5V5.486H38.174C39.878 5.486 41.141 5.78 41.963 6.368C42.791 6.95 43.205 7.793 43.205 8.897C43.205 9.545 43.04 10.109 42.71 10.589C42.38 11.063 41.792 11.477 40.946 11.831C41.492 11.969 41.933 12.155 42.269 12.389C42.605 12.623 42.863 12.884 43.043 13.172C43.223 13.454 43.346 13.751 43.412 14.063C43.478 14.369 43.511 14.672 43.511 14.972C43.511 16.172 43.103 17.06 42.287 17.636C41.471 18.212 40.172 18.5 38.39 18.5H33.458ZM36.077 16.466H38.444C39.236 16.466 39.833 16.307 40.235 15.989C40.643 15.671 40.847 15.245 40.847 14.711C40.847 14.327 40.748 14.006 40.55 13.748C40.352 13.484 40.082 13.286 39.74 13.154C39.404 13.022 39.02 12.956 38.588 12.956H36.077V16.466ZM36.077 10.868H38.588C38.858 10.868 39.116 10.838 39.362 10.778C39.614 10.712 39.836 10.613 40.028 10.481C40.226 10.349 40.382 10.181 40.496 9.977C40.61 9.767 40.667 9.521 40.667 9.239C40.667 8.675 40.454 8.249 40.028 7.961C39.608 7.667 39.068 7.52 38.408 7.52H36.077V10.868ZM49.6293 18.68C48.7173 18.68 47.9223 18.485 47.2443 18.095C46.5723 17.705 46.0503 17.153 45.6783 16.439C45.3123 15.725 45.1293 14.879 45.1293 13.901C45.1293 12.923 45.3123 12.068 45.6783 11.336C46.0503 10.604 46.5723 10.034 47.2443 9.626C47.9223 9.218 48.7203 9.014 49.6383 9.014C50.5563 9.014 51.3513 9.215 52.0233 9.617C52.6953 10.013 53.2143 10.577 53.5803 11.309C53.9463 12.041 54.1293 12.905 54.1293 13.901C54.1293 14.837 53.9493 15.665 53.5893 16.385C53.2353 17.099 52.7223 17.66 52.0503 18.068C51.3843 18.476 50.5773 18.68 49.6293 18.68ZM49.6383 16.727C50.1003 16.727 50.4723 16.592 50.7543 16.322C51.0363 16.052 51.2403 15.698 51.3663 15.26C51.4923 14.816 51.5553 14.333 51.5553 13.811C51.5553 13.319 51.4983 12.854 51.3843 12.416C51.2703 11.978 51.0723 11.624 50.7903 11.354C50.5083 11.084 50.1243 10.949 49.6383 10.949C49.1763 10.949 48.8013 11.078 48.5133 11.336C48.2313 11.588 48.0243 11.933 47.8923 12.371C47.7603 12.803 47.6943 13.283 47.6943 13.811C47.6943 14.297 47.7543 14.765 47.8743 15.215C47.9943 15.659 48.1953 16.022 48.4773 16.304C48.7593 16.586 49.1463 16.727 49.6383 16.727ZM59.9828 18.68C59.0708 18.68 58.2758 18.485 57.5978 18.095C56.9258 17.705 56.4038 17.153 56.0318 16.439C55.6658 15.725 55.4828 14.879 55.4828 13.901C55.4828 12.923 55.6658 12.068 56.0318 11.336C56.4038 10.604 56.9258 10.034 57.5978 9.626C58.2758 9.218 59.0738 9.014 59.9918 9.014C60.9098 9.014 61.7048 9.215 62.3768 9.617C63.0488 10.013 63.5678 10.577 63.9338 11.309C64.2998 12.041 64.4828 12.905 64.4828 13.901C64.4828 14.837 64.3028 15.665 63.9428 16.385C63.5888 17.099 63.0758 17.66 62.4038 18.068C61.7378 18.476 60.9308 18.68 59.9828 18.68ZM59.9918 16.727C60.4538 16.727 60.8258 16.592 61.1078 16.322C61.3898 16.052 61.5938 15.698 61.7198 15.26C61.8458 14.816 61.9088 14.333 61.9088 13.811C61.9088 13.319 61.8518 12.854 61.7378 12.416C61.6238 11.978 61.4258 11.624 61.1438 11.354C60.8618 11.084 60.4778 10.949 59.9918 10.949C59.5298 10.949 59.1548 11.078 58.8668 11.336C58.5848 11.588 58.3778 11.933 58.2458 12.371C58.1138 12.803 58.0478 13.283 58.0478 13.811C58.0478 14.297 58.1078 14.765 58.2278 15.215C58.3478 15.659 58.5488 16.022 58.8308 16.304C59.1128 16.586 59.4998 16.727 59.9918 16.727ZM66.2773 18.5V5.126H68.9053V13.055L72.3253 9.194H75.1513L71.7673 12.902L75.2683 18.5H72.6493L70.1383 14.486L68.9053 15.8V18.5H66.2773ZM81.0947 18.5V5.486H85.8107C87.5147 5.486 88.7777 5.78 89.5997 6.368C90.4277 6.95 90.8417 7.793 90.8417 8.897C90.8417 9.545 90.6767 10.109 90.3467 10.589C90.0167 11.063 89.4287 11.477 88.5827 11.831C89.1287 11.969 89.5697 12.155 89.9057 12.389C90.2417 12.623 90.4997 12.884 90.6797 13.172C90.8597 13.454 90.9827 13.751 91.0487 14.063C91.1147 14.369 91.1477 14.672 91.1477 14.972C91.1477 16.172 90.7397 17.06 89.9237 17.636C89.1077 18.212 87.8087 18.5 86.0267 18.5H81.0947ZM83.7137 16.466H86.0807C86.8727 16.466 87.4697 16.307 87.8717 15.989C88.2797 15.671 88.4837 15.245 88.4837 14.711C88.4837 14.327 88.3847 14.006 88.1867 13.748C87.9887 13.484 87.7187 13.286 87.3767 13.154C87.0407 13.022 86.6567 12.956 86.2247 12.956H83.7137V16.466ZM83.7137 10.868H86.2247C86.4947 10.868 86.7527 10.838 86.9987 10.778C87.2507 10.712 87.4727 10.613 87.6647 10.481C87.8627 10.349 88.0187 10.181 88.1327 9.977C88.2467 9.767 88.3037 9.521 88.3037 9.239C88.3037 8.675 88.0907 8.249 87.6647 7.961C87.2447 7.667 86.7047 7.52 86.0447 7.52H83.7137V10.868ZM93.084 18.5V9.194H95.613V11.399C95.763 10.925 95.973 10.511 96.243 10.157C96.519 9.797 96.852 9.518 97.242 9.32C97.632 9.116 98.073 9.014 98.565 9.014C98.649 9.014 98.727 9.02 98.799 9.032C98.877 9.038 98.934 9.05 98.97 9.068V11.57C98.916 11.546 98.85 11.531 98.772 11.525C98.7 11.519 98.634 11.513 98.574 11.507C98.058 11.465 97.617 11.48 97.251 11.552C96.885 11.624 96.588 11.747 96.36 11.921C96.132 12.095 95.967 12.308 95.865 12.56C95.763 12.812 95.712 13.094 95.712 13.406V18.5H93.084ZM104.543 18.68C103.631 18.68 102.836 18.485 102.158 18.095C101.486 17.705 100.964 17.153 100.592 16.439C100.226 15.725 100.043 14.879 100.043 13.901C100.043 12.923 100.226 12.068 100.592 11.336C100.964 10.604 101.486 10.034 102.158 9.626C102.836 9.218 103.634 9.014 104.552 9.014C105.47 9.014 106.265 9.215 106.937 9.617C107.609 10.013 108.128 10.577 108.494 11.309C108.86 12.041 109.043 12.905 109.043 13.901C109.043 14.837 108.863 15.665 108.503 16.385C108.149 17.099 107.636 17.66 106.964 18.068C106.298 18.476 105.491 18.68 104.543 18.68ZM104.552 16.727C105.014 16.727 105.386 16.592 105.668 16.322C105.95 16.052 106.154 15.698 106.28 15.26C106.406 14.816 106.469 14.333 106.469 13.811C106.469 13.319 106.412 12.854 106.298 12.416C106.184 11.978 105.986 11.624 105.704 11.354C105.422 11.084 105.038 10.949 104.552 10.949C104.09 10.949 103.715 11.078 103.427 11.336C103.145 11.588 102.938 11.933 102.806 12.371C102.674 12.803 102.608 13.283 102.608 13.811C102.608 14.297 102.668 14.765 102.788 15.215C102.908 15.659 103.109 16.022 103.391 16.304C103.673 16.586 104.06 16.727 104.552 16.727ZM112.752 18.5L109.737 9.194H112.059L113.841 14.963H113.904L115.614 9.194H117.495L119.223 14.963H119.295L121.023 9.194H123.399L120.339 18.5H118.242L116.514 12.866L114.777 18.5H112.752ZM128.24 18.68C127.592 18.68 126.968 18.575 126.368 18.365C125.774 18.149 125.267 17.813 124.847 17.357C124.433 16.895 124.172 16.298 124.064 15.566H126.332C126.416 15.896 126.56 16.157 126.764 16.349C126.974 16.541 127.211 16.679 127.475 16.763C127.739 16.841 127.991 16.88 128.231 16.88C128.735 16.88 129.14 16.802 129.446 16.646C129.758 16.484 129.914 16.238 129.914 15.908C129.914 15.656 129.821 15.455 129.635 15.305C129.455 15.155 129.155 15.041 128.735 14.963L127.097 14.621C126.275 14.447 125.612 14.153 125.108 13.739C124.61 13.319 124.358 12.725 124.352 11.957C124.346 11.399 124.49 10.898 124.784 10.454C125.084 10.01 125.525 9.659 126.107 9.401C126.695 9.143 127.412 9.014 128.258 9.014C129.404 9.014 130.319 9.266 131.003 9.77C131.693 10.274 132.044 10.985 132.056 11.903H129.86C129.794 11.543 129.614 11.267 129.32 11.075C129.032 10.877 128.666 10.778 128.222 10.778C127.772 10.778 127.4 10.859 127.106 11.021C126.812 11.183 126.665 11.429 126.665 11.759C126.665 12.005 126.785 12.2 127.025 12.344C127.265 12.482 127.637 12.602 128.141 12.704L129.653 13.046C130.175 13.172 130.598 13.346 130.922 13.568C131.252 13.784 131.507 14.021 131.687 14.279C131.867 14.537 131.99 14.798 132.056 15.062C132.128 15.32 132.164 15.554 132.164 15.764C132.164 16.382 131.999 16.91 131.669 17.348C131.339 17.78 130.88 18.11 130.292 18.338C129.704 18.566 129.02 18.68 128.24 18.68ZM138.263 18.68C137.339 18.68 136.526 18.488 135.824 18.104C135.128 17.714 134.585 17.165 134.195 16.457C133.805 15.749 133.61 14.915 133.61 13.955C133.61 13.025 133.787 12.188 134.141 11.444C134.501 10.694 135.017 10.103 135.689 9.671C136.361 9.233 137.174 9.014 138.128 9.014C139.076 9.014 139.871 9.215 140.513 9.617C141.155 10.013 141.641 10.568 141.971 11.282C142.301 11.99 142.466 12.809 142.466 13.739V14.45H136.211C136.211 14.924 136.289 15.338 136.445 15.692C136.601 16.04 136.826 16.31 137.12 16.502C137.42 16.688 137.78 16.781 138.2 16.781C138.65 16.781 139.043 16.685 139.379 16.493C139.715 16.301 139.952 15.986 140.09 15.548H142.457C142.349 16.208 142.085 16.772 141.665 17.24C141.245 17.708 140.735 18.065 140.135 18.311C139.535 18.557 138.911 18.68 138.263 18.68ZM136.211 12.884H140.009C140.009 12.512 139.937 12.17 139.793 11.858C139.655 11.546 139.445 11.3 139.163 11.12C138.887 10.94 138.539 10.85 138.119 10.85C137.717 10.85 137.372 10.949 137.084 11.147C136.802 11.339 136.583 11.591 136.427 11.903C136.277 12.215 136.205 12.542 136.211 12.884ZM144.359 18.5V9.194H146.888V11.399C147.038 10.925 147.248 10.511 147.518 10.157C147.794 9.797 148.127 9.518 148.517 9.32C148.907 9.116 149.348 9.014 149.84 9.014C149.924 9.014 150.002 9.02 150.074 9.032C150.152 9.038 150.209 9.05 150.245 9.068V11.57C150.191 11.546 150.125 11.531 150.047 11.525C149.975 11.519 149.909 11.513 149.849 11.507C149.333 11.465 148.892 11.48 148.526 11.552C148.16 11.624 147.863 11.747 147.635 11.921C147.407 12.095 147.242 12.308 147.14 12.56C147.038 12.812 146.987 13.094 146.987 13.406V18.5H144.359Z" fill="#0D141C"/>
<defs>
<clipPath id="clip0_1_6">
<rect width="16" height="16" fill="white" transform="translate(0 4)"/>
</clipPath>
</defs>
</svg>
